<svg xmlns="http://www.w3.org/2000/svg" viewBox="0 0 960 620" font-family="'Segoe UI', Arial, sans-serif">
  <defs>
    <marker id="arrow" viewBox="0 0 10 6" refX="10" refY="3" markerWidth="10" markerHeight="6" orient="auto-start-reverse">
      <path d="M0,0 L10,3 L0,6 Z" fill="#333"/>
    </marker>
    <marker id="arrow-red" viewBox="0 0 10 6" refX="10" refY="3" markerWidth="10" markerHeight="6" orient="auto-start-reverse">
      <path d="M0,0 L10,3 L0,6 Z" fill="#c62828"/>
    </marker>
    <marker id="arrow-blue" viewBox="0 0 10 6" refX="10" refY="3" markerWidth="10" markerHeight="6" orient="auto-start-reverse">
      <path d="M0,0 L10,3 L0,6 Z" fill="#1565c0"/>
    </marker>
    <marker id="arrow-green" viewBox="0 0 10 6" refX="10" refY="3" markerWidth="10" markerHeight="6" orient="auto-start-reverse">
      <path d="M0,0 L10,3 L0,6 Z" fill="#2e7d32"/>
    </marker>
  </defs>

  <rect width="960" height="620" fill="#fff" rx="4"/>

  <!-- SECTION LABELS -->
  <text x="245" y="28" text-anchor="middle" fill="#1565c0" font-size="15" font-weight="800" letter-spacing="0.1em">CONNECTION LIFECYCLE</text>
  <line x1="30" y1="38" x2="460" y2="38" stroke="#bbdefb" stroke-width="1.5"/>

  <text x="720" y="28" text-anchor="middle" fill="#7b1fa2" font-size="15" font-weight="800" letter-spacing="0.1em">VALIDATION + RUNTIME</text>
  <line x1="540" y1="38" x2="930" y2="38" stroke="#e1bee7" stroke-width="1.5"/>

  <!-- CONNECTION STATES -->

  <!-- Welcome -->
  <rect x="30" y="65" width="155" height="60" rx="10" fill="#e3f2fd" stroke="#1565c0" stroke-width="2"/>
  <text x="107" y="92" text-anchor="middle" fill="#1565c0" font-size="17" font-weight="700">Welcome</text>
  <text x="107" y="112" text-anchor="middle" fill="#1976d2" font-size="12">initial screen</text>

  <!-- Listening -->
  <rect x="30" y="195" width="155" height="60" rx="10" fill="#fff3e0" stroke="#e65100" stroke-width="2"/>
  <text x="107" y="222" text-anchor="middle" fill="#e65100" font-size="17" font-weight="700">Listening</text>
  <text x="107" y="242" text-anchor="middle" fill="#bf360c" font-size="12">ServerSocket :41233</text>

  <!-- Connected -->
  <rect x="260" y="195" width="155" height="60" rx="10" fill="#e8f5e9" stroke="#2e7d32" stroke-width="2"/>
  <text x="337" y="222" text-anchor="middle" fill="#2e7d32" font-size="17" font-weight="700">Connected</text>
  <text x="337" y="242" text-anchor="middle" fill="#388e3c" font-size="12">Brain TCP client</text>

  <!-- Heartbeat -->
  <rect x="240" y="298" width="195" height="34" rx="8" fill="#fff8e1" stroke="#f9a825" stroke-width="1.5"/>
  <text x="337" y="320" text-anchor="middle" fill="#f57f17" font-size="13" font-weight="600">Heartbeat: 30s send / 60s timeout</text>

  <!-- Disconnected -->
  <rect x="30" y="365" width="155" height="52" rx="10" fill="#ffcdd2" stroke="#c62828" stroke-width="2"/>
  <text x="107" y="397" text-anchor="middle" fill="#c62828" font-size="17" font-weight="700">Disconnected</text>

  <!-- Reconnecting -->
  <rect x="30" y="480" width="155" height="60" rx="10" fill="#fce4ec" stroke="#c62828" stroke-width="1.5"/>
  <text x="107" y="507" text-anchor="middle" fill="#c62828" font-size="16" font-weight="700">Reconnecting</text>
  <text x="107" y="527" text-anchor="middle" fill="#c62828" font-size="12">exp. backoff, max 5</text>

  <!-- CONNECTION TRANSITIONS -->

  <!-- Welcome to Listening -->
  <line x1="107" y1="125" x2="107" y2="192" stroke="#333" stroke-width="2" marker-end="url(#arrow)"/>
  <text x="117" y="163" text-anchor="start" fill="#333" font-size="14" font-style="italic">Get Started</text>

  <!-- Listening to Connected -->
  <line x1="185" y1="225" x2="257" y2="225" stroke="#2e7d32" stroke-width="2" marker-end="url(#arrow-green)"/>
  <text x="221" y="215" text-anchor="middle" fill="#2e7d32" font-size="14" font-style="italic">Brain connects</text>

  <!-- Connected to Disconnected -->
  <path d="M280,255 Q220,320 165,365" fill="none" stroke="#c62828" stroke-width="2" marker-end="url(#arrow-red)"/>
  <text x="130" y="305" text-anchor="end" fill="#c62828" font-size="14" font-style="italic">socket error /</text>
  <text x="130" y="323" text-anchor="end" fill="#c62828" font-size="14" font-style="italic">heartbeat timeout</text>

  <!-- Disconnected to Reconnecting -->
  <line x1="107" y1="417" x2="107" y2="477" stroke="#c62828" stroke-width="1.8" marker-end="url(#arrow-red)"/>
  <text x="117" y="452" text-anchor="start" fill="#c62828" font-size="14" font-style="italic">auto</text>

  <!-- Reconnecting to Connected -->
  <path d="M185,500 Q460,500 460,390 Q460,270 418,255" fill="none" stroke="#2e7d32" stroke-width="1.8" marker-end="url(#arrow-green)" stroke-dasharray="6,4"/>
  <text x="470" y="400" text-anchor="start" fill="#2e7d32" font-size="14" font-style="italic">Brain reconnects</text>

  <!-- Reconnecting to Disconnected (max retries) -->
  <path d="M30,505 Q8,445 30,417" fill="none" stroke="#666" stroke-width="1.5" marker-end="url(#arrow)" stroke-dasharray="5,4"/>
  <text x="5" y="460" text-anchor="start" fill="#444" font-size="14" font-style="italic">max</text>
  <text x="5" y="478" text-anchor="start" fill="#444" font-size="14" font-style="italic">retries</text>

  <!-- VALIDATION + RUNTIME STATES -->

  <!-- Receive Config -->
  <rect x="560" y="65" width="170" height="55" rx="10" fill="#e3f2fd" stroke="#1565c0" stroke-width="2"/>
  <text x="645" y="90" text-anchor="middle" fill="#1565c0" font-size="16" font-weight="700">Receive Config</text>
  <text x="645" y="108" text-anchor="middle" fill="#1976d2" font-size="12">block_config JSON</text>

  <!-- Validate -->
  <rect x="560" y="170" width="170" height="55" rx="10" fill="#f3e5f5" stroke="#7b1fa2" stroke-width="2"/>
  <text x="645" y="195" text-anchor="middle" fill="#7b1fa2" font-size="16" font-weight="700">Validate</text>
  <text x="645" y="213" text-anchor="middle" fill="#9c27b0" font-size="12">4 grammar rules</text>

  <!-- Send Validation -->
  <rect x="560" y="280" width="170" height="55" rx="10" fill="#e8f5e9" stroke="#2e7d32" stroke-width="2"/>
  <text x="645" y="304" text-anchor="middle" fill="#2e7d32" font-size="16" font-weight="700">Send Validation</text>
  <text x="645" y="322" text-anchor="middle" fill="#388e3c" font-size="12">config_validation to Brain</text>

  <!-- Monitor Runtime -->
  <rect x="560" y="400" width="170" height="55" rx="10" fill="#fff3e0" stroke="#e65100" stroke-width="2"/>
  <text x="645" y="424" text-anchor="middle" fill="#e65100" font-size="16" font-weight="700">Monitor Runtime</text>
  <text x="645" y="445" text-anchor="middle" fill="#bf360c" font-size="12">runtime_update messages</text>

  <!-- VALIDATION TRANSITIONS -->

  <!-- Connected to Receive Config -->
  <path d="M415,215 Q490,135 557,92" fill="none" stroke="#1565c0" stroke-width="1.8" marker-end="url(#arrow-blue)"/>
  <text x="465" y="140" text-anchor="middle" fill="#1565c0" font-size="14" font-style="italic">TCP: block_config</text>

  <!-- Receive Config to Validate -->
  <line x1="645" y1="120" x2="645" y2="167" stroke="#333" stroke-width="2" marker-end="url(#arrow)"/>
  <text x="655" y="147" text-anchor="start" fill="#333" font-size="14" font-style="italic">parse + inject Brain</text>

  <!-- Validate to Send Validation -->
  <line x1="645" y1="225" x2="645" y2="277" stroke="#333" stroke-width="2" marker-end="url(#arrow)"/>
  <text x="655" y="255" text-anchor="start" fill="#333" font-size="14" font-style="italic">rules checked</text>

  <!-- Send Validation loops back -->
  <path d="M730,297 Q810,297 810,190 Q810,85 733,88" fill="none" stroke="#666" stroke-width="1.5" marker-end="url(#arrow)" stroke-dasharray="5,4"/>
  <text x="820" y="183" text-anchor="start" fill="#444" font-size="14" font-style="italic">next config</text>
  <text x="820" y="201" text-anchor="start" fill="#444" font-size="14" font-style="italic">change</text>

  <!-- Brain NAK -->
  <rect x="760" y="268" width="160" height="32" rx="6" fill="#fff8e1" stroke="#f9a825" stroke-width="1.2"/>
  <text x="840" y="289" text-anchor="middle" fill="#f57f17" font-size="13" font-weight="600">Brain NAK: re-publish</text>

  <!-- Send Validation to Monitor Runtime -->
  <line x1="645" y1="335" x2="645" y2="397" stroke="#333" stroke-width="2" marker-end="url(#arrow)"/>
  <text x="655" y="370" text-anchor="start" fill="#333" font-size="14" font-style="italic">execution begins</text>

  <!-- Monitor Runtime self-loop -->
  <path d="M580,455 Q555,490 580,510 Q620,525 660,510 Q690,490 680,455" fill="none" stroke="#e65100" stroke-width="1.5" marker-end="url(#arrow)"/>
  <text x="630" y="535" text-anchor="middle" fill="#e65100" font-size="14" font-style="italic">runtime_update: pc, state</text>

  <!-- Runtime state badges -->
  <rect x="560" y="555" width="60" height="22" rx="5" fill="#e3f2fd" stroke="#1565c0" stroke-width="1"/>
  <text x="590" y="570" text-anchor="middle" fill="#1565c0" font-size="11" font-weight="600">IDLE</text>
  <rect x="626" y="555" width="80" height="22" rx="5" fill="#fff3e0" stroke="#e65100" stroke-width="1"/>
  <text x="666" y="570" text-anchor="middle" fill="#e65100" font-size="11" font-weight="600">RUNNING</text>
  <rect x="712" y="555" width="60" height="22" rx="5" fill="#e8f5e9" stroke="#2e7d32" stroke-width="1"/>
  <text x="742" y="570" text-anchor="middle" fill="#2e7d32" font-size="11" font-weight="600">DONE</text>
  <rect x="778" y="555" width="60" height="22" rx="5" fill="#ffcdd2" stroke="#c62828" stroke-width="1"/>
  <text x="808" y="570" text-anchor="middle" fill="#c62828" font-size="11" font-weight="600">ERROR</text>
  <rect x="844" y="555" width="56" height="22" rx="5" fill="#fce4ec" stroke="#c62828" stroke-width="1"/>
  <text x="872" y="570" text-anchor="middle" fill="#c62828" font-size="11" font-weight="600">STOP</text>

  <!-- Note -->
  <text x="560" y="604" fill="#666" font-size="12" font-style="italic">* App does not send START/STOP; Brain gates execution on config_validation.is_valid</text>

  <!-- Legend -->
  <rect x="20" y="582" width="510" height="30" rx="6" fill="#f5f5f5" stroke="#e0e0e0" stroke-width="1"/>
  <line x1="35" y1="597" x2="65" y2="597" stroke="#1565c0" stroke-width="2" marker-end="url(#arrow-blue)"/>
  <text x="72" y="601" fill="#333" font-size="11">TCP message</text>
  <line x1="170" y1="597" x2="200" y2="597" stroke="#2e7d32" stroke-width="2" marker-end="url(#arrow-green)"/>
  <text x="207" y="601" fill="#333" font-size="11">connection gained</text>
  <line x1="340" y1="597" x2="370" y2="597" stroke="#c62828" stroke-width="1.8" marker-end="url(#arrow-red)"/>
  <text x="377" y="601" fill="#333" font-size="11">connection lost</text>
  <line x1="475" y1="597" x2="505" y2="597" stroke="#666" stroke-width="1.5" stroke-dasharray="5,4" marker-end="url(#arrow)"/>
  <text x="510" y="601" fill="#333" font-size="11">loop</text>

</svg>
